<svg version="1.2" xmlns="http://www.w3.org/2000/svg" viewBox="0 0 1080 1080" width="1080" height="1080"><style>.a{fill:#7b8496;stroke:#7b8496;stroke-linecap:round;stroke-miterlimit:100;stroke-width:11}.b{fill:#f1ff5e}.c{fill:#ff5ea0}.d{fill:#bd5eff}.e{fill:#5ea1ff}.f{fill:#7b8496;stroke:#7b8496;stroke-linecap:round;stroke-miterlimit:100;stroke-width:10}</style><path fill-rule="evenodd" class="a" d="m52.9 55.2l3.2-3.1 969.5 980.2-3.2 3.1z"/><path fill-rule="evenodd" class="a" d="m1027.4 57l3.1 3.1-979.4 970.4-3.1-3.1z"/><path class="b" d="m586.5 341.4q-22.8 0-36.5-14-13.7-14.1-17.5-40.3 24.4-11.8 33.6-23.5 9.2-11.7 9.2-21.8 0-11.6-13.2-11.6-7.1 0-14.7 3.9-7.6 3.8-14.4 11.3-6.9 7.3-12 18.1-5.1 10.6-7.4 24.2l5.6-43.9h4.7q2.7-11.1 9.2-19.3 6.5-8.3 15.8-12.9 9.4-4.6 20.5-4.6 14.6 0 23.2 8.8 8.8 8.8 8.8 23.3 0 19.6-11.6 34.4-11.5 14.8-32.4 25.7l-1.2-18.7q3.9 20.9 11.4 29.3 7.6 8.4 21.9 8.4 3.5 0 5.5-0.1 2-0.2 4.4-0.5l2.3 22.1q-3.4 0.8-7 1.3-3.5 0.4-8.2 0.4zm-82-2.5h-26.3l25.8-146.2q1.6-9.4-1.1-13.7-2.5-4.3-10-4.3-3.1 0-6.1 0.4-2.9 0.2-6 1l-2.8-21q4.6-1.1 9.3-1.5 4.6-0.5 9.3-0.5 21.2 0 29.1 10.3 7.8 10.2 3.9 33z"/><path class="c" d="m328.6 634h-26.6l15.2-87.1q2-11.3-1.7-17-3.6-5.8-13-5.8-10.1 0-18.7 5.8-8.7 5.8-15.6 19.4-6.8 13.4-11.7 36.5l6.1-52.9h5.5q3.9-15.5 15.8-23.9 12-8.4 28.5-8.4 19.9 0 27.7 12 7.9 11.9 3.7 35.3zm-80.8 0h-26.5l25.9-146.6q1.7-9.5-1-13.8-2.7-4.3-10.2-4.3-3.1 0-6.2 0.4-3 0.2-6.1 0.9l-2.6-22.4q4.7-1.1 9.4-1.5 4.7-0.5 9.4-0.5 21.5 0 29.4 10.4 8 10.3 4 33.3z"/><path class="d" d="m804.6 639.6q-21.5 0-31.7-9.8-10.1-10-10.1-30.8 0-4.7 0.9-10.4 0.9-5.7 2.8-13.1l20.1-78.3q4.5-17.5 0.9-25.1-3.5-7.6-20.8-7.6-4.4 0-9.1 0.8-4.5 0.6-9 2.6l-4.1-23.6q6.5-1.8 13.1-2.8 6.6-1.2 13.2-1.2 30 0 40.6 14.4 10.8 14.3 3 44.1l-20 76.7q-2.1 7.7-3 13.1-0.9 5.4-0.9 9.2 0 17.2 19.1 17.2 7.9 0 13.9-1.9 5.9-2 14.2-6.5l8.9 20.8q-9 5.2-19.1 8.7-10 3.5-22.9 3.5z"/><path class="e" d="m503.1 923.6l-22.1 1.4-1.2-22 25.7-2.1q14.9-1.2 23-6.1 8.3-5 12.5-14.4 4.2-9.3 6.7-23.3l13.4-75.2q1.6-9-1-12.9-2.5-4.1-9.6-4.1-11.1 0-22.3 1.5-11.2 1.5-22.3 3.5l-2.4-21.8q12.4-2.3 25.2-3.6 12.8-1.4 25.5-1.4 20.3 0 27.7 9.8 7.6 9.8 3.8 31.3l-12.3 69.2q-3.1 17.5-7.7 30.2-4.5 12.7-12.2 21.2-7.7 8.5-19.9 13.1-12.2 4.5-30.5 5.7zm79.8-197.8q-7.1 0-12.3-5-5-5.1-5-12.2 0-7.3 5-12.3 5.2-5 12.3-5 7.2 0 12.2 5 5 5 5 12.3 0 7.1-5 12.2-5 5-12.2 5z"/><path fill-rule="evenodd" class="a" d="m37.5 35.8l56.3 9.2-47.1 47.2z"/><path fill-rule="evenodd" class="a" d="m1049.4 36l-9.3 56.4-47.1-47.2z"/><path class="f" d="m128.1 951.4l-1.1 3.6-47-15.4 1.2-3.6zm-1.4 4.4l3.7-0.8 10.9 48.2-3.7 0.8zm-26.9 20.3l-1.1 3.2-42.8-14 1.1-3.3zm-1.2 4l3.3-0.7 9.9 43.9-3.3 0.8zm-22.6 21.4l-1 3.1-41.1-13.4 1-3.2zm-1.2 3.9l3.2-0.7 9.5 42.1-3.2 0.8z"/><path class="f" d="m946.4 956.2l3.6 1.2-15.4 46.9-3.6-1.1zm4.4 1.3l-0.8-3.7 48.2-10.8 0.8 3.6zm20.3 26.9l3.2 1.1-14 42.8-3.3-1zm4 1.2l-0.7-3.4 43.9-9.9 0.8 3.3zm21.4 22.6l3.1 1.1-13.4 41.1-3.2-1.1zm3.9 1.2l-0.7-3.2 42.1-9.5 0.8 3.2z"/></svg>